<svg width="16" height="20" viewBox="0 0 16 20" fill="none" xmlns="http://www.w3.org/2000/svg">
<path fill-rule="evenodd" clip-rule="evenodd" d="M6.50905 0.373665C6.98226 0.18929 7.48848 0.0947266 7.99906 0.0947266C8.50965 0.0947266 9.01587 0.18929 9.48908 0.373665C9.96232 0.558052 10.3942 0.829043 10.7594 1.17255C11.1247 1.51613 11.4162 1.92568 11.6156 2.37868C11.8152 2.83178 11.9183 3.31858 11.9183 3.81101H10.9183C10.9183 3.4587 10.8446 3.10903 10.7005 2.78169C10.5563 2.45427 10.344 2.1547 10.0743 1.90095C9.80445 1.64715 9.48248 1.44432 9.12604 1.30544C8.76956 1.16655 8.38653 1.09473 7.99906 1.09473C7.6116 1.09473 7.22857 1.16655 6.87209 1.30544C6.51565 1.44432 6.19369 1.64715 5.92386 1.90095C5.6541 2.1547 5.44186 2.45427 5.29768 2.7817C5.15353 3.10903 5.0798 3.4587 5.0798 3.81101H4.0798C4.0798 3.31858 4.18296 2.83178 4.38248 2.37868C4.58197 1.92568 4.87345 1.51613 5.2387 1.17256C5.6039 0.829043 6.03581 0.558052 6.50905 0.373665ZM4.0798 5.5752V3.8125H5.0798V5.5752H7.99973H10.9183V3.8125H11.9183V5.5752H14.4419H14.9085L14.9407 6.04076L15.861 19.3706L15.8979 19.9051H15.3622H7.99973H0.637273H0.101562L0.138461 19.3706L1.05877 6.04076L1.09091 5.5752H1.55758H4.0798ZM4.0798 6.5752H2.02425L1.17298 18.9051H7.99973H14.8265L13.9752 6.5752H11.9183V8.10087H10.9183V6.5752H7.99973H5.0798V8.10087H4.0798V6.5752Z" fill="black"/>
</svg>
